<svg width="16" height="16" viewBox="0 0 16 16" fill="none" xmlns="http://www.w3.org/2000/svg">
<path fill-rule="evenodd" clip-rule="evenodd" d="M1.33398 7.99998C1.33398 7.63179 1.63246 7.33331 2.00065 7.33331H14.0007C14.3688 7.33331 14.6673 7.63179 14.6673 7.99998C14.6673 8.36817 14.3688 8.66665 14.0007 8.66665H2.00065C1.63246 8.66665 1.33398 8.36817 1.33398 7.99998Z" fill="#213F7D" fill-opacity="0.87"/>
<path fill-rule="evenodd" clip-rule="evenodd" d="M1.33398 3.99998C1.33398 3.63179 1.63246 3.33331 2.00065 3.33331H14.0007C14.3688 3.33331 14.6673 3.63179 14.6673 3.99998C14.6673 4.36817 14.3688 4.66665 14.0007 4.66665H2.00065C1.63246 4.66665 1.33398 4.36817 1.33398 3.99998Z" fill="#213F7D" fill-opacity="0.87"/>
<path fill-rule="evenodd" clip-rule="evenodd" d="M1.33398 12C1.33398 11.6318 1.63246 11.3333 2.00065 11.3333H14.0007C14.3688 11.3333 14.6673 11.6318 14.6673 12C14.6673 12.3682 14.3688 12.6666 14.0007 12.6666H2.00065C1.63246 12.6666 1.33398 12.3682 1.33398 12Z" fill="#213F7D" fill-opacity="0.87"/>
</svg>
